<?xml version="1.0" standalone="no"?>
<!DOCTYPE svg PUBLIC "-//W3C//DTD SVG 20010904//EN"
 "http://www.w3.org/TR/2001/REC-SVG-20010904/DTD/svg10.dtd">
<svg version="1.0" xmlns="http://www.w3.org/2000/svg"
 width="16.000000pt" height="16.000000pt" viewBox="0 0 16.000000 16.000000"
 preserveAspectRatio="xMidYMid meet">
<metadata>
Created by potrace 1.11, written by Peter Selinger 2001-2013
</metadata>
<g transform="translate(0.000000,16.000000) scale(0.004000,-0.004000)"
fill="#000000" stroke="none">
<path d="M2285 2223 c-38 -8 -114 -33 -168 -55 -88 -37 -103 -40 -160 -35 -38
3 -87 17 -127 35 -143 66 -366 69 -605 9 -77 -20 -158 -39 -180 -44 -40 -8
-40 -9 -43 -58 -4 -54 12 -75 53 -75 32 0 54 -30 65 -89 14 -73 35 -142 55
-182 42 -80 108 -101 329 -103 157 -1 163 0 221 27 78 37 147 110 175 185 29
81 33 87 69 90 40 4 56 -9 88 -72 41 -82 110 -156 173 -184 48 -23 71 -26 175
-28 224 -5 334 21 375 88 20 33 53 164 65 256 7 52 9 54 51 72 42 19 44 21 44
63 0 25 -6 49 -12 54 -7 5 -62 17 -123 27 -60 9 -132 21 -160 26 -77 14 -281
10 -360 -7z m-48 -39 c-3 -3 -12 -4 -19 -1 -8 3 -5 6 6 6 11 1 17 -2 13 -5z
m-40 -10 c-3 -3 -12 -4 -19 -1 -8 3 -5 6 6 6 11 1 17 -2 13 -5z m475 -36 c21
-9 47 -32 58 -50 19 -29 21 -46 18 -143 -4 -132 -22 -178 -81 -208 -32 -17
-61 -20 -190 -21 -176 -1 -209 7 -275 68 -57 52 -82 110 -82 187 0 148 83 191
360 186 116 -2 164 -7 192 -19z m-990 -9 c114 -24 153 -63 165 -159 8 -65 -17
-129 -71 -188 -73 -80 -98 -87 -281 -87 -141 1 -166 3 -200 21 -61 31 -79 76
-83 209 -3 102 -2 112 20 145 36 54 93 69 260 70 75 0 161 -5 190 -11z"/>
<path d="M2640 998 c-87 -141 -223 -290 -293 -322 -50 -22 -62 -24 -219 -36
-208 -16 -433 1 -500 37 -88 48 -222 189 -293 311 -23 38 -35 41 -35 10 0 -13
-14 -43 -30 -67 -17 -24 -30 -52 -30 -61 0 -23 -63 -78 -98 -86 -15 -3 -72
-22 -127 -41 -55 -19 -127 -41 -160 -48 -33 -8 -107 -28 -165 -45 -236 -69
-410 -108 -460 -102 -8 0 -37 -5 -65 -12 -27 -8 -68 -17 -90 -21 -82 -13 -75
13 -75 -266 l0 -249 2000 0 2000 0 0 259 0 259 -82 11 c-46 6 -108 13 -138 16
-142 15 -260 40 -322 66 -36 16 -75 29 -85 29 -29 0 -206 45 -232 59 -13 8
-53 19 -87 27 -35 7 -78 19 -96 28 -18 8 -56 22 -85 31 -69 22 -108 59 -116
111 -4 23 -13 47 -21 53 -8 7 -18 25 -21 41 -3 15 -14 35 -24 44 -18 16 -20
14 -51 -36z"/>
</g>
</svg>
