<?xml version="1.0" encoding="utf-8"?>
<!-- Generator: Adobe Illustrator 16.0.0, SVG Export Plug-In . SVG Version: 6.00 Build 0)  -->
<!DOCTYPE svg PUBLIC "-//W3C//DTD SVG 1.1//EN" "http://www.w3.org/Graphics/SVG/1.1/DTD/svg11.dtd" [
	<!ENTITY ns_flows "http://ns.adobe.com/Flows/1.0/">
	<!ENTITY ns_extend "http://ns.adobe.com/Extensibility/1.0/">
	<!ENTITY ns_ai "http://ns.adobe.com/AdobeIllustrator/10.0/">
	<!ENTITY ns_graphs "http://ns.adobe.com/Graphs/1.0/">
]>
<svg version="1.1" id="Layer_1" xmlns:x="&ns_extend;" xmlns:i="&ns_ai;" xmlns:graph="&ns_graphs;"
	 xmlns="http://www.w3.org/2000/svg" xmlns:xlink="http://www.w3.org/1999/xlink" xmlns:a="http://ns.adobe.com/AdobeSVGViewerExtensions/3.0/"
	 x="0px" y="0px" width="384px" height="384px" viewBox="0 0 384 384" enable-background="new 0 0 384 384" xml:space="preserve">
<g transform="translate(0.000000,384.000000) scale(0.100000,-0.100000)">
	<path d="M3737.382,577.285c-1.328-3.096-2.773-3.887-4.385-3.281C3724.003,577.998,3685,585,3645.996,590
		c-38.994,5-126.992,17.002-195.996,25.996c-72.998,9.004-150,26.006-185,40c-34.004,13.008-82.998,28.008-110,34.004
		c-57.002,10.996-175,42.002-220,57.998c-15.996,6.006-52.002,17.002-80,26.006c-169.004,50.996-222.998,76.992-230.996,113.994
		c-4.004,15-17.002,50-29.004,77.002c-12.002,27.998-25,57.998-27.998,67.998c-7.998,22.998-34.004,22.002-42.002-2.998
		c-12.998-40-105-170-170-239.004c-70.996-75-172.998-145-265-181.992c-82.998-33.008-245-38.008-337.002-11.006
		c-130,40-300.996,185-408.999,349.004c-55,82.002-73.999,93.994-73.999,48.994c0-12.998-7.002-28.994-15-35.996
		s-18.999-30-25-50.996c-6.001-21.006-21.001-47.002-35-57.002C1172.998,835,963.999,760.996,850,730.996
		c-25-6.992-92.002-25.996-150-41.992C492.002,630.996,413.999,612.002,340,605c-41.001-4.004-100-12.998-130-20
		c-30-7.998-70-17.002-87.002-20L90,557.998v1.533c-8.335-3.662-16.782-6.66-25.771-7.764L65,90.996l22.998-22.998L111.001,45
		h3618.002L3775,90.996v482.705C3762.187,570.547,3748.486,571.758,3737.382,577.285z"/>
	<path d="M2177.998,3507.998c-7.998-12.998-20-36.997-27.002-55c-6.992-17.998-20-37.998-27.998-45
		c-15.996-12.998-15-13.999-57.998,47.002c-14.004,18.999-15,18.999-25.996,2.002c-6.006-10-24.004-34.004-41.006-53.003l-30-33.999
		l-28.994,57.002c-16.006,31.997-30.005,61.997-32.002,66.997c-2.002,5-33.003-21.997-70-60L1770,3366L1690,3445l-80,80v-51.001
		c0-65-17.002-113.999-38.999-113.999c-38.003,0-128.999-68.999-251.001-190c-112.998-112.998-212.002-175-297.002-187.002
		C998.999,2980,980,2976,980,2973.999c0-1.997,11.001-27.998,23.999-57.998l23.999-53.999l-50-43.003l-50-41.997l25-13.003
		c37.002-20,40-40,18.003-112.998c-18.999-61.001-41.001-220-41.001-290c0-18.999,12.998-45,38.999-76.001
		c40-48.999,61.001-101.001,61.001-153.999c0-57.002,21.001-122.002,46.001-138.003c12.998-7.998,26.997-11.997,32.998-8.999
		c5,3.999,12.002,37.002,15,73.999c15,163.003,55,412.002,75,465c6.001,15,50,65,98.003,111.001
		C1375,2708.999,1392.998,2721,1465,2746c77.002,27.998,87.002,28.999,265,28.999h185l42.998-27.998
		c34.004-22.002,50-43.003,72.998-93.003c16.006-35,29.004-70,29.004-77.998c0-8.003,5-27.002,10-41.001l10-27.002l40,41.001
		c22.002,23.003,40,46.001,40,51.001c0,30,19.004,0,49.004-80c18.994-50,37.998-90,42.998-90c3.994,0,22.002,12.998,40,28.999
		c42.002,37.002,55.996,30,98.994-46.997c57.002-102.002,52.002-101.001,131.006-27.002c37.002,36.001,72.002,65,77.002,65
		c15.996,0,21.992-70,10-130c-10-53.999-9.004-65,10-117.998c11.992-31.001,30-91.001,38.994-132.002
		c25-107.998,37.998-101.001,87.002,45c45,132.998,69.004,178.999,119.004,222.998c62.998,55,67.998,69.004,55,155l-11.006,76.001
		l32.002,27.002c30,26.001,32.002,31.001,27.998,75c-5.996,57.998-72.002,152.998-122.002,173.999
		c-16.992,7.002-45.996,27.002-65,43.999c-45,40-37.998,63.999,41.006,135l60.996,56.001h-33.994c-19.004,0-50-3.999-69.004-10
		c-42.002-12.002-127.998-16.001-137.998-6.001c-4.004,3.999,12.002,25,35.996,47.002c22.998,21.997,42.002,41.997,42.002,43.999
		c0,2.998-45.996,5-102.002,5c-98.994,0-103.994,1.001-137.002,28.999c-18.994,17.002-63.994,47.002-100,68.003
		C2345,3277.998,2294.004,3315,2269.004,3340C2222.002,3387.001,2210,3417.998,2210,3491C2210,3535,2199.004,3541,2177.998,3507.998
		z"/>
</g>
</svg>
