<?xml version="1.0" standalone="no"?>
<!DOCTYPE svg PUBLIC "-//W3C//DTD SVG 20010904//EN"
 "http://www.w3.org/TR/2001/REC-SVG-20010904/DTD/svg10.dtd">
<svg version="1.0" xmlns="http://www.w3.org/2000/svg"
 width="300.000000pt" height="300.000000pt" viewBox="0 0 300.000000 300.000000"
 preserveAspectRatio="xMidYMid meet">
<metadata>
Created by potrace 1.11, written by Peter Selinger 2001-2013
</metadata>
<g transform="translate(0.000000,300.000000) scale(0.100000,-0.100000)"
fill="#000000" stroke="none">
<path d="M1380 2856 c-3 -2 -31 -6 -62 -10 -176 -17 -405 -104 -567 -214 -304
-207 -498 -499 -578 -873 -24 -115 -24 -380 0 -499 90 -435 365 -790 753 -971
196 -92 341 -123 569 -124 197 0 294 16 467 78 463 166 792 570 873 1072 13
79 13 338 1 400 -39 188 -61 254 -132 400 -177 361 -520 627 -925 716 -86 19
-386 38 -399 25z m355 -445 c307 -84 564 -329 655 -626 31 -102 35 -136 35
-285 -1 -162 -23 -258 -89 -395 -120 -246 -335 -424 -604 -497 -111 -31 -353
-31 -465 0 -314 86 -566 329 -657 632 -32 106 -35 130 -35 265 0 146 6 190 39
289 80 236 234 420 448 535 81 44 199 86 268 96 25 4 47 8 49 10 2 2 65 3 140
1 100 -3 157 -9 216 -25z"/>
</g>
</svg>
