<?xml version="1.0" standalone="no"?>
<!DOCTYPE svg PUBLIC "-//W3C//DTD SVG 20010904//EN"
 "http://www.w3.org/TR/2001/REC-SVG-20010904/DTD/svg10.dtd">
<svg version="1.0" xmlns="http://www.w3.org/2000/svg"
 width="400.000000pt" height="400.000000pt" viewBox="0 0 400.000000 400.000000"
 preserveAspectRatio="xMidYMid meet">
<metadata>
Created by potrace 1.11, written by Peter Selinger 2001-2013
</metadata>
<g transform="translate(0.000000,400.000000) scale(0.100000,-0.100000)"
fill="#000000" stroke="none">
<path d="M1855 3494 c-229 -33 -374 -77 -544 -164 -412 -213 -697 -598 -788
-1065 -24 -125 -24 -405 0 -530 60 -306 208 -587 420 -797 213 -211 488 -355
792 -415 125 -24 405 -24 530 0 304 60 579 204 792 415 212 210 360 491 420
797 24 125 24 405 0 530 -60 304 -207 585 -417 795 -205 205 -482 353 -769
411 -92 19 -366 33 -436 23z m327 -638 c277 -59 523 -266 628 -530 50 -125 62
-201 57 -361 -3 -125 -7 -150 -37 -237 -98 -293 -351 -521 -648 -584 -86 -18
-278 -18 -364 0 -277 59 -523 266 -628 530 -44 110 -60 194 -60 326 0 132 16
216 60 326 104 261 350 470 624 529 82 18 285 18 368 1z"/>
</g>
</svg>
